<svg width="214" height="201" viewBox="0 0 214 201" fill="none" xmlns="http://www.w3.org/2000/svg">
<g id="OBJECTS" opacity="0.3" clip-path="url(#clip0_1375_846)">
<path id="Vector" d="M150.264 28.7478C147.96 31.4367 146.879 34.9918 147.113 38.5289L147.888 49.7537H141.172V44.412L140.974 28.2606C136.239 29.7945 120.845 31.1841 111.195 31.0938C95.6029 30.9495 80.0831 29.4877 80.0831 29.4877C77.8686 34.1978 75.546 44.394 75.546 44.394V49.7357H68.9204L65.1035 47.895C65.1035 47.895 56.0293 13.625 76.5003 10.8278C76.5003 10.8278 82.4777 1.89486 92.8482 2.03924C105.739 2.20165 139.029 9.99767 152.839 0C152.839 0 158.33 19.3457 150.246 28.7478H150.264Z" fill="#4D4D4D"/>
<path id="Vector_2" d="M214 201L198.534 155.397C193.745 141.285 182.366 130.403 168.071 126.306C151.453 121.542 133.646 118.33 130.442 117.77C130.802 118.312 131.198 118.781 131.63 119.196L108.476 138.397L83.9904 119.196C84.4225 118.781 84.8186 118.294 85.1967 117.734C82.6221 118.167 63.7175 121.416 46.2532 126.324C31.8137 130.385 20.2729 141.285 15.4478 155.523L0 201H214Z" fill="#4D4D4D"/>
<path id="Vector_3" d="M133.107 117.68C129.758 114.414 127.813 104.651 127.111 96.8185C125.869 97.6848 124.537 98.4968 123.078 99.2187C123.708 104.669 125.203 113.8 128.66 118.907L108.441 135.672L86.9975 118.853C90.5444 113.547 92.0207 104.001 92.5969 98.6593C91.1385 97.8652 89.7882 96.981 88.5639 96.0425C87.9157 104.001 85.9533 114.287 82.4964 117.68L80.75 119.394L108.513 141.158L134.799 119.34L133.107 117.68Z" fill="#4D4D4D"/>
<path id="Vector_4" d="M108.62 105.264H108.008C91.7139 103.875 83.1618 95.3568 78.8768 88.4631C74.2497 81.028 73.4755 73.9538 73.4395 73.647V73.4305V43.2751L73.6915 43.0946C74.2857 40.5681 76.2481 32.6819 78.1926 28.5493L78.8228 27.1958L80.3171 27.3402C80.4792 27.3402 95.9269 28.8019 111.249 28.9463C120.971 29.0365 135.951 27.6289 140.362 26.2032L143.098 25.319L143.35 44.3939L143.314 73.5388V73.647C143.278 73.9358 142.504 81.0099 137.859 88.4631C133.556 95.3568 125.022 103.875 108.728 105.264H108.638H108.62ZM108.296 101.005H108.44C135.429 98.6592 138.813 75.3073 139.047 73.3042L139.083 44.3939L138.903 30.9494C132.134 32.3029 119.243 33.2954 111.195 33.2052C98.5375 33.0789 85.7905 32.0863 81.4514 31.7254C79.723 36.1107 78.0126 43.239 77.6885 44.6105V73.3042C77.9225 75.2712 81.2894 98.6412 108.296 100.987V101.005Z" fill="#4D4D4D"/>
<path id="Vector_5" d="M75.5645 70.4709C69.0829 70.0197 68.2727 66.9699 68.4167 63.5411C68.5608 59.986 67.2825 56.3045 65.1219 47.895C62.9794 39.4854 74.5562 43.8165 74.5562 43.8165L75.5465 46.2708V70.4529L75.5645 70.4709Z" fill="#4D4D4D"/>
<path id="Vector_6" d="M150.39 47.895C148.248 56.3045 146.969 59.986 147.113 63.5411C147.239 66.7353 146.555 69.6227 141.208 70.3446L141.244 44.394C141.244 44.394 141.118 44.2857 140.884 44.1052L140.992 43.8165C140.992 43.8165 152.533 39.4854 150.408 47.895H150.39Z" fill="#4D4D4D"/>
<path id="Vector_7" d="M125.473 99.327C125.473 99.327 117.317 113.547 96.7558 111.761L91.9666 128.291L83.9727 119.214L90.3822 98.0818C90.3822 98.0818 109.701 106.618 125.473 99.327Z" fill="#4D4D4D"/>
<path id="Vector_8" d="M139.444 62.0072C139.444 75.6863 127.399 83.6808 127.399 83.6808C123.816 74.1704 110.817 73.8275 107.703 73.8817C104.57 73.8275 91.5706 74.1704 88.0058 83.6808C88.0058 83.6808 75.9608 75.6863 75.9608 62.0072C75.9608 62.0072 72.1439 100.356 107.216 103.063V103.135C107.396 103.135 107.559 103.117 107.721 103.099C107.883 103.099 108.063 103.135 108.225 103.135V103.063C143.297 100.356 139.48 62.0072 139.48 62.0072H139.444ZM107.703 96.6922C101.221 96.187 96.0717 94.3282 92.0928 90.9896L94.0012 85.9366C96.0357 80.5408 105.362 80.2701 107.216 80.2701C107.36 80.2701 107.739 80.2701 107.739 80.2701C107.739 80.2701 108.099 80.2701 108.261 80.2701C110.115 80.2701 119.441 80.5408 121.476 85.9366L123.384 90.9896C119.405 94.3101 114.256 96.187 107.775 96.6922H107.703Z" fill="#4D4D4D"/>
</g>
<defs>
<clipPath id="clip0_1375_846">
<rect width="214" height="201" fill="white"/>
</clipPath>
</defs>
</svg>
